<svg width="20" height="19" viewBox="0 0 20 19" fill="none" xmlns="http://www.w3.org/2000/svg">
<path d="M2 0.5C1.60218 0.5 1.22064 0.658035 0.93934 0.93934C0.658035 1.22064 0.5 1.60218 0.5 2C0.5 2.39782 0.658035 2.77936 0.93934 3.06066C1.22064 3.34196 1.60218 3.5 2 3.5H18C18.3978 3.5 18.7794 3.34196 19.0607 3.06066C19.342 2.77936 19.5 2.39782 19.5 2C19.5 1.60218 19.342 1.22064 19.0607 0.93934C18.7794 0.658035 18.3978 0.5 18 0.5H2ZM2 5.5C1.60218 5.5 1.22064 5.65804 0.93934 5.93934C0.658035 6.22064 0.5 6.60218 0.5 7C0.5 7.39782 0.658035 7.77936 0.93934 8.06066C1.22064 8.34196 1.60218 8.5 2 8.5H18C18.3978 8.5 18.7794 8.34196 19.0607 8.06066C19.342 7.77936 19.5 7.39782 19.5 7C19.5 6.60218 19.342 6.22064 19.0607 5.93934C18.7794 5.65804 18.3978 5.5 18 5.5H2ZM0.5 12C0.5 11.6022 0.658035 11.2206 0.93934 10.9393C1.22064 10.658 1.60218 10.5 2 10.5H18C18.3978 10.5 18.7794 10.658 19.0607 10.9393C19.342 11.2206 19.5 11.6022 19.5 12C19.5 12.3978 19.342 12.7794 19.0607 13.0607C18.7794 13.342 18.3978 13.5 18 13.5H2C1.60218 13.5 1.22064 13.342 0.93934 13.0607C0.658035 12.7794 0.5 12.3978 0.5 12ZM2 15.5C1.60218 15.5 1.22064 15.658 0.93934 15.9393C0.658035 16.2206 0.5 16.6022 0.5 17C0.5 17.3978 0.658035 17.7794 0.93934 18.0607C1.22064 18.342 1.60218 18.5 2 18.5H18C18.3978 18.5 18.7794 18.342 19.0607 18.0607C19.342 17.7794 19.5 17.3978 19.5 17C19.5 16.6022 19.342 16.2206 19.0607 15.9393C18.7794 15.658 18.3978 15.5 18 15.5H2Z" fill="white"/>
</svg>
