<svg width="20" height="20" viewBox="0 0 20 20" fill="none" xmlns="http://www.w3.org/2000/svg">
<path fill-rule="evenodd" clip-rule="evenodd" d="M16 0C17.0609 0 18.0783 0.421427 18.8284 1.17157C19.5786 1.92172 20 2.93913 20 4V16C20 17.0609 19.5786 18.0783 18.8284 18.8284C18.0783 19.5786 17.0609 20 16 20H4C2.93913 20 1.92172 19.5786 1.17157 18.8284C0.421427 18.0783 0 17.0609 0 16V4C0 2.93913 0.421427 1.92172 1.17157 1.17157C1.92172 0.421427 2.93913 0 4 0H16ZM13.4 10.669L12.061 12.176L11.506 10.927C11.438 10.7744 11.3328 10.6413 11.2001 10.5398C11.0674 10.4383 10.9113 10.3717 10.7462 10.3461C10.5812 10.3204 10.4123 10.3365 10.255 10.3929C10.0978 10.4493 9.95713 10.5443 9.846 10.669L8.506 12.176L7.951 10.927C7.88303 10.7742 7.77783 10.6409 7.64503 10.5393C7.51223 10.4377 7.35606 10.371 7.19082 10.3453C7.02557 10.3196 6.85653 10.3358 6.69916 10.3924C6.54179 10.4489 6.40111 10.544 6.29 10.669L3.92 13.336C3.82764 13.4332 3.75577 13.548 3.70868 13.6736C3.6616 13.7992 3.64025 13.9329 3.64591 14.0669C3.65157 14.2009 3.68412 14.3324 3.74162 14.4535C3.79913 14.5747 3.88042 14.683 3.98065 14.7721C4.08088 14.8612 4.19801 14.9293 4.32507 14.9722C4.45213 15.0151 4.58652 15.032 4.72025 15.0219C4.85398 15.0118 4.98431 14.9749 5.10349 14.9134C5.22267 14.852 5.32827 14.7671 5.414 14.664L6.754 13.158L7.308 14.406C7.37591 14.559 7.48113 14.6925 7.61401 14.7942C7.7469 14.896 7.90321 14.9628 8.06861 14.9885C8.234 15.0141 8.4032 14.9979 8.56069 14.9412C8.71817 14.8845 8.85891 14.7892 8.97 14.664L10.309 13.158L10.864 14.406C10.932 14.5588 11.0372 14.6921 11.17 14.7937C11.3028 14.8953 11.4589 14.962 11.6242 14.9877C11.7894 15.0134 11.9585 14.9972 12.1158 14.9406C12.2732 14.8841 12.4139 14.789 12.525 14.664L13.865 13.158L14.419 14.406C14.5267 14.6484 14.7262 14.8381 14.9738 14.9334C15.2213 15.0286 15.4966 15.0217 15.739 14.914C15.9814 14.8063 16.1711 14.6068 16.2664 14.3592C16.3616 14.1117 16.3547 13.8364 16.247 13.594L15.062 10.927C14.994 10.7742 14.8888 10.6409 14.756 10.5393C14.6232 10.4377 14.4671 10.371 14.3018 10.3453C14.1366 10.3196 13.9675 10.3358 13.8102 10.3924C13.6528 10.4489 13.5121 10.544 13.401 10.669M14.303 5.012C14.1587 4.9895 14.0112 4.99888 13.8709 5.03948C13.7307 5.08008 13.601 5.15091 13.491 5.247L13.401 5.336L12.062 6.842L11.507 5.594C11.4434 5.45102 11.3471 5.32497 11.2259 5.22598C11.1046 5.127 10.9619 5.05785 10.8091 5.0241C10.6562 4.99034 10.4976 4.99293 10.346 5.03164C10.1944 5.07036 10.0539 5.14412 9.936 5.247L9.846 5.336L8.506 6.842L7.952 5.594C7.88841 5.45085 7.79209 5.32463 7.67079 5.22553C7.54949 5.12643 7.4066 5.0572 7.25365 5.02344C7.10069 4.98968 6.94194 4.99232 6.79019 5.03115C6.63844 5.06998 6.49794 5.14392 6.38 5.247L6.29 5.336L3.92 8.002C3.74884 8.19178 3.65684 8.43989 3.66288 8.69538C3.66892 8.95087 3.77256 9.19435 3.9525 9.37583C4.13244 9.55731 4.37503 9.663 4.63046 9.67122C4.88589 9.67943 5.13477 9.58954 5.326 9.42L5.416 9.331L6.754 7.824L7.309 9.073C7.37258 9.21615 7.46891 9.34237 7.59021 9.44147C7.71151 9.54057 7.8544 9.6098 8.00735 9.64356C8.16031 9.67732 8.31906 9.67468 8.47081 9.63585C8.62256 9.59702 8.76306 9.52308 8.881 9.42L8.971 9.331L10.31 7.824L10.865 9.073C10.9286 9.21598 11.0249 9.34203 11.1461 9.44102C11.2674 9.54 11.4101 9.60915 11.5629 9.6429C11.7158 9.67666 11.8744 9.67407 12.026 9.63536C12.1776 9.59664 12.3181 9.52288 12.436 9.42L12.526 9.331L13.866 7.824L14.42 9.073C14.5217 9.30908 14.7104 9.49693 14.9469 9.59756C15.1835 9.69819 15.4497 9.70387 15.6903 9.61341C15.9309 9.52295 16.1275 9.34332 16.2391 9.11178C16.3508 8.88025 16.369 8.61461 16.29 8.37L16.248 8.26L15.063 5.594C14.9951 5.44118 14.8899 5.30783 14.7572 5.20615C14.6244 5.10448 14.4682 5.03773 14.303 5.012Z" fill="white"/>
</svg>
